<?xml version="1.0" encoding="UTF-8"?>
<svg version="1.1" xmlns="http://www.w3.org/2000/svg" width="244" height="148">
<path d="M0 0 C7.50725743 -0.07643488 15.01441346 -0.12876094 22.52197266 -0.16479492 C25.07279206 -0.17982636 27.62358585 -0.20025705 30.17431641 -0.22631836 C33.85325463 -0.26294972 37.53184935 -0.27978346 41.2109375 -0.29296875 C42.34050873 -0.30845261 43.47007996 -0.32393646 44.63388062 -0.33988953 C58.0107546 -0.34269516 69.23784545 3.90295599 79.1484375 12.984375 C87.55342852 22.13411206 91.13660191 33.60098949 91.11352539 45.83154297 C91.11367142 46.48590836 91.11381744 47.14027374 91.1139679 47.81446838 C91.11327647 49.95707626 91.10552052 52.09959499 91.09765625 54.2421875 C91.09578933 55.73576815 91.09436672 57.22934942 91.09336853 58.72293091 C91.08956494 62.63885207 91.07975324 66.55473568 91.06866455 70.47064209 C91.05840388 74.47261039 91.05386096 78.47458481 91.04882812 82.4765625 C91.03812889 90.31772742 91.02054973 98.1588547 91 106 C82.42 106 73.84 106 65 106 C64.9906543 104.07808838 64.98130859 102.15617676 64.97167969 100.17602539 C64.93603539 93.79763963 64.88216369 87.41960718 64.81609726 81.04146671 C64.77673195 77.17761193 64.74449038 73.3139813 64.72900391 69.44995117 C64.71376436 65.71491178 64.67919205 61.98048908 64.63169098 58.24572563 C64.61695177 56.82697372 64.6089633 55.40813372 64.60811615 53.9893055 C64.63766717 42.39394297 64.63766717 42.39394297 60 32 C55.91874607 28.38870965 51.549847 26.24713483 46.078125 25.859375 C42.11214052 26.12774989 38.63084878 27.45584592 35 29 C33.6078125 29.556875 33.6078125 29.556875 32.1875 30.125 C27.87807854 33.81878982 26.2610143 38.76529616 25.61218262 44.32034302 C25.44290709 48.24828697 25.39297187 52.16705904 25.390625 56.09765625 C25.3756186 57.5421278 25.35888634 58.98658234 25.34051514 60.43101501 C25.29710447 64.20385594 25.27690161 67.97646553 25.26177979 71.74951172 C25.24211295 75.61114026 25.20015427 79.47252238 25.16015625 83.33398438 C25.0851393 90.88928741 25.03674073 98.44439611 25 106 C16.75 106 8.5 106 0 106 C-1.0437571 93.19326602 -1.15528815 80.46986391 -1.125 67.625 C-1.12411377 66.5447052 -1.12322754 65.4644104 -1.12231445 64.35137939 C-1.10178478 42.89116439 -0.66290324 21.44915119 0 0 Z " fill="#0B0B0B" transform="translate(37,30)"/>
<path d="M0 0 C8.30220797 -0.06982278 16.60429116 -0.12297378 24.90672112 -0.15543652 C28.76279014 -0.17102498 32.61865678 -0.19213675 36.47460938 -0.22631836 C40.20289191 -0.25915757 43.93098101 -0.27690416 47.65939713 -0.28463173 C49.07461716 -0.29013155 50.48982783 -0.30087012 51.90496445 -0.31719017 C66.26587239 -0.47606755 78.50491663 2.35515583 89.375 12.21875 C99.71334882 23.55117082 101.59704071 36.94633268 101.390625 51.60546875 C101.38314771 53.18157731 101.37746183 54.75769528 101.37347412 56.33381653 C101.35833457 60.44555152 101.31915678 64.55670484 101.2746582 68.66821289 C101.23345047 72.87833797 101.21540914 77.08855872 101.1953125 81.29882812 C101.15264828 89.53284638 101.08239738 97.76628341 101 106 C92.75 106 84.5 106 76 106 C75.21152054 96.86576869 74.93399131 87.86369845 75.0078125 78.6953125 C75.01962555 77.04979401 75.01962555 77.04979401 75.03167725 75.37103271 C75.06812781 70.79537087 75.11040698 66.21993743 75.17138672 61.64453125 C75.21386205 58.26559486 75.23718104 54.88694347 75.2578125 51.5078125 C75.27643341 50.48575714 75.29505432 49.46370178 75.3142395 48.41067505 C75.33554606 42.41545646 75.12408252 36.29652653 72 31 C70.07827028 29.78064713 70.07827028 29.78064713 68 29 C66.824375 28.443125 66.824375 28.443125 65.625 27.875 C62.6208534 26.8736178 60.14733797 26.93930753 57 27 C57.00222061 27.97496933 57.00444122 28.94993866 57.00672913 29.95445251 C57.02696097 39.12229718 57.04197234 48.29013734 57.05181217 57.45799923 C57.05704089 62.17179733 57.06413834 66.88557747 57.07543945 71.59936523 C57.08626873 76.14455404 57.09227692 80.68972552 57.09487724 85.23492622 C57.09673142 86.97294958 57.10035189 88.71097194 57.10573006 90.44898796 C57.11294103 92.87478595 57.11399092 95.30051146 57.11352539 97.72631836 C57.11712067 98.45208069 57.12071594 99.17784302 57.12442017 99.92559814 C57.11405216 104.88594784 57.11405216 104.88594784 56 106 C54.14630389 106.08737645 52.28932459 106.10698153 50.43359375 106.09765625 C49.30888672 106.09443359 48.18417969 106.09121094 47.02539062 106.08789062 C45.84138672 106.07951172 44.65738281 106.07113281 43.4375 106.0625 C42.24962891 106.05798828 41.06175781 106.05347656 39.83789062 106.04882812 C36.89187774 106.03699675 33.94596319 106.02051287 31 106 C30.99120064 104.69906906 30.99120064 104.69906906 30.98222351 103.37185669 C30.92410766 95.16318567 30.85192394 86.95478129 30.76428509 78.74637032 C30.71972532 74.52722237 30.68043833 70.30816779 30.65356445 66.08886719 C30.62738676 62.01028045 30.58688451 57.93205581 30.53681374 53.85369492 C30.52024214 52.30457977 30.50866784 50.75540213 30.50238609 49.20621109 C30.44131644 35.51878265 28.43744582 24.24464113 20 13 C14.2264054 7.60420773 7.40790842 4.53760267 0 2 C0 1.34 0 0.68 0 0 Z " fill="#080807" transform="translate(117,30)"/>
<path d="" fill="#FFFFFF" transform="translate(0,0)"/>
<path d="" fill="#FFFFFF" transform="translate(0,0)"/>
<path d="" fill="#FFFFFF" transform="translate(0,0)"/>
<path d="" fill="#FFFFFF" transform="translate(0,0)"/>
<path d="" fill="#000000" transform="translate(0,0)"/>
</svg>
