<?xml version="1.0" encoding="UTF-8"?>
<svg version="1.1" xmlns="http://www.w3.org/2000/svg" width="507" height="283">
<path d="M0 0 C0.87567627 -0.0071553 1.75135254 -0.01431061 2.65356445 -0.02168274 C3.62221939 -0.02437164 4.59087433 -0.02706055 5.58888245 -0.02983093 C6.60374725 -0.03640213 7.61861206 -0.04297333 8.66423035 -0.04974365 C12.04609751 -0.06955707 15.42791978 -0.08116606 18.80982971 -0.09111023 C19.9669301 -0.09518576 21.12403049 -0.09926128 22.31619453 -0.10346031 C28.4577072 -0.12436969 34.59919729 -0.13864203 40.74073792 -0.147995 C47.04698098 -0.15898183 53.35286356 -0.1932773 59.65898037 -0.23316669 C64.53479602 -0.25951104 69.41052884 -0.26770325 74.28640938 -0.27127647 C76.60769609 -0.27610807 78.92897997 -0.28762241 81.25019646 -0.30631447 C99.81161951 -0.44631486 116.26802537 0.95778601 133.06373596 9.52217102 C134.01248596 9.97849915 134.96123596 10.43482727 135.93873596 10.90498352 C141.6204995 13.7065179 147.32712589 16.72983799 151.93873596 21.14717102 C151.93873596 21.80717102 151.93873596 22.46717102 151.93873596 23.14717102 C152.59873596 23.14717102 153.25873596 23.14717102 153.93873596 23.14717102 C155.34889221 24.72920227 155.34889221 24.72920227 157.00123596 26.95967102 C159.72369042 30.59718846 162.58080982 34.03353883 165.56373596 37.45967102 C170.11916198 43.06338459 172.59816398 48.36270663 174.93873596 55.14717102 C175.18265202 55.79881414 175.42656807 56.45045727 175.67787552 57.12184715 C181.71029383 73.46672658 181.74393874 89.58663613 181.54709959 106.74844575 C181.50900396 110.64403853 181.50602179 114.53967448 181.49894714 118.4354248 C181.48046787 125.77671909 181.43146641 133.11746256 181.37085021 140.45851678 C181.3032504 148.83119649 181.2706632 157.20390573 181.2406776 165.57679141 C181.17834689 182.76728912 181.06853316 199.95703018 180.93873596 217.14717102 C163.77873596 217.14717102 146.61873596 217.14717102 128.93873596 217.14717102 C128.93986389 213.23228821 128.94099182 209.3174054 128.94215393 205.28388977 C128.94152451 192.3038672 128.90825259 179.32409696 128.85845757 166.34417725 C128.829074 158.47961044 128.8105972 150.61531163 128.81861877 142.75068665 C128.82558923 135.8885977 128.81125801 129.02692429 128.77229989 122.16493702 C128.75242698 118.53799066 128.74257359 114.91169488 128.75831223 111.28471375 C129.12973911 85.30083338 129.12973911 85.30083338 116.93873596 63.14717102 C115.2696248 61.75812144 115.2696248 61.75812144 113.59889221 60.88154602 C113.01043518 60.5489679 112.42197815 60.21638977 111.81568909 59.87373352 C110.91753479 59.39033508 110.91753479 59.39033508 110.00123596 58.89717102 C109.40633362 58.55943665 108.81143127 58.22170227 108.19850159 57.87373352 C101.45789532 54.13140786 95.84734018 52.75616574 88.25123596 52.77217102 C87.4568512 52.77378235 86.66246643 52.77539368 85.8440094 52.77705383 C75.91082451 52.98306946 67.05983988 55.99600191 59.94264221 63.15498352 C50.05240107 73.86185008 47.64531786 82.80696282 47.61988831 97.15083313 C47.60481987 99.09820374 47.60481987 99.09820374 47.58944702 101.08491516 C47.56225252 104.62776369 47.54702911 108.17057268 47.53401899 111.71349788 C47.51834204 115.42243761 47.49156647 119.13129716 47.46598816 122.84017944 C47.41928094 129.85581918 47.38249796 136.87147413 47.34931529 143.88718945 C47.31103682 151.87757588 47.26164173 159.86788163 47.21133113 167.85819995 C47.10813113 184.28780444 47.0202994 200.71744271 46.93873596 217.14717102 C29.77873596 217.14717102 12.61873596 217.14717102 -5.06126404 217.14717102 C-5.08380801 189.00153873 -5.10224143 160.85591371 -5.11307621 132.7102747 C-5.11823994 119.64276876 -5.12528409 106.57526881 -5.13670349 93.50776672 C-5.14664799 82.12263705 -5.1531169 70.73751172 -5.15535253 59.35237783 C-5.15666004 53.31998656 -5.1597484 47.28760771 -5.16699409 41.25522041 C-5.17375062 35.58447245 -5.17588175 29.9137421 -5.17437172 24.24299049 C-5.17464821 22.15514785 -5.17665551 20.06730466 -5.18046951 17.97946548 C-5.18540102 15.14216186 -5.18426435 12.30492584 -5.18151855 9.46762085 C-5.1844314 8.63008886 -5.18734424 7.79255687 -5.19034535 6.92964512 C-5.17213269 0.02890211 -5.17213269 0.02890211 0 0 Z " fill="#F7F7F7" transform="translate(70.06126403808594,41.85282897949219)"/>
<path d="M0 0 C1.34789144 0.04993069 2.69579782 0.09945944 4.04371643 0.14865112 C5.13006473 0.19075022 5.13006473 0.19075022 6.23835945 0.2336998 C21.24265427 0.80157678 36.22673818 0.94285833 51.24047852 0.86669922 C53.18435629 0.85856576 55.12823447 0.85052997 57.07211304 0.84259033 C65.00828845 0.80768262 72.94435842 0.76517132 80.88037109 0.703125 C85.82907723 0.66510215 90.77766871 0.64236038 95.72649956 0.62881851 C97.57331058 0.62089981 99.42010843 0.60749309 101.26683235 0.58788681 C125.25814174 0.33669616 145.26053913 3.84830236 164.76782227 18.87451172 C166.33209961 20.05207031 166.33209961 20.05207031 167.92797852 21.25341797 C184.76531492 34.51468293 196.12519146 55.53637157 198.76782227 76.87451172 C199.02379054 80.27182862 199.18053405 83.67038553 199.32202148 87.07421875 C199.36413191 88.07452181 199.40624233 89.07482487 199.44962883 90.10544014 C199.93048884 102.62759007 199.91231662 115.14968787 199.90063477 127.67919922 C199.90131022 130.26710011 199.90228225 132.85500094 199.90353394 135.44290161 C199.90499374 140.8094348 199.90300704 146.17594968 199.89819336 151.54248047 C199.8926938 157.74535013 199.89456358 163.94818722 199.90001976 170.15105617 C199.90509031 176.15735062 199.90457432 182.16362906 199.90163803 188.16992569 C199.90097003 190.71457041 199.90179278 193.25921596 199.90411758 195.80385971 C199.90663906 199.331177 199.90281364 202.85842975 199.8972168 206.38574219 C199.89924103 207.44004929 199.90126526 208.49435638 199.90335083 209.58061218 C199.90053101 210.53320419 199.89771118 211.4857962 199.89480591 212.46725464 C199.89424037 213.71526006 199.89424037 213.71526006 199.89366341 214.98847771 C199.76782227 216.87451172 199.76782227 216.87451172 198.76782227 217.87451172 C197.21411643 218.00233278 195.65479956 218.06282949 194.09619141 218.09570312 C193.10168472 218.11887604 192.10717804 218.14204895 191.08253479 218.16592407 C190.00028122 218.18577362 188.91802765 218.20562317 187.80297852 218.22607422 C186.14751259 218.26080338 186.14751259 218.26080338 184.45860291 218.29623413 C182.11909726 218.34395616 179.77953955 218.38917992 177.43994141 218.43212891 C173.84917004 218.49915988 170.25874208 218.57691938 166.66821289 218.65576172 C164.40064752 218.70068106 162.13306961 218.74497286 159.86547852 218.78857422 C158.78524918 218.81247223 157.70501984 218.83637024 156.59205627 218.86099243 C155.09556801 218.88629532 155.09556801 218.88629532 153.56884766 218.91210938 C152.24766685 218.93756332 152.24766685 218.93756332 150.89979553 218.96353149 C148.76782227 218.87451172 148.76782227 218.87451172 146.76782227 217.87451172 C146.77004288 217.06005585 146.77226349 216.24559998 146.77455139 215.40646362 C146.86515547 180.46717113 146.95134557 145.52352046 146.50436401 110.58624268 C146.47036499 107.91315053 146.44418593 105.24033195 146.42166138 102.56707764 C146.38876922 98.86060662 146.33697696 95.15489167 146.27954102 91.44873047 C146.26994858 89.83041069 146.26994858 89.83041069 146.26016235 88.17939758 C146.05733422 77.94834406 142.33928318 69.82919482 135.29125977 62.29638672 C127.39801914 55.28955279 117.97089841 54.7875885 107.76782227 52.87451172 C107.76782227 107.32451172 107.76782227 161.77451172 107.76782227 217.87451172 C90.60782227 217.87451172 73.44782227 217.87451172 55.76782227 217.87451172 C55.75323975 213.62116943 55.73865723 209.36782715 55.72363281 204.9855957 C55.67318305 190.89600486 55.60671736 176.80652268 55.53210735 162.71704006 C55.48728115 154.1788043 55.44783669 145.64060902 55.42138672 137.10229492 C55.3982993 129.65396968 55.36478304 122.20577399 55.31912071 114.75755173 C55.29533219 110.81950862 55.2765099 106.88159267 55.27020836 102.94347954 C55.26409161 99.22434888 55.24385966 95.50554296 55.21354675 91.78653336 C55.20078508 89.7963211 55.20231828 87.80603256 55.20454407 85.81578064 C55.07975322 73.6349914 53.32083982 61.72864527 48.08032227 50.62451172 C47.73509521 49.87218262 47.38986816 49.11985352 47.03417969 48.34472656 C43.54835084 40.99443164 39.49646459 33.82125616 33.02954102 28.71044922 C32.28317383 28.10458984 31.53680664 27.49873047 30.76782227 26.87451172 C30.76782227 26.21451172 30.76782227 25.55451172 30.76782227 24.87451172 C30.19161133 24.62185547 29.61540039 24.36919922 29.02172852 24.10888672 C26.50127562 22.7285347 24.7717631 21.11756493 22.70532227 19.12451172 C14.18116493 11.44859842 4.73292259 7.83805235 -6.23217773 4.87451172 C-6.23217773 4.21451172 -6.23217773 3.55451172 -6.23217773 2.87451172 C-6.89217773 2.87451172 -7.55217773 2.87451172 -8.23217773 2.87451172 C-8.23217773 2.21451172 -8.23217773 1.55451172 -8.23217773 0.87451172 C-5.39971614 -0.54171908 -3.16479658 -0.13045875 0 0 Z " fill="#F4F4F3" transform="translate(237.232177734375,41.12548828125)"/>
<path d="M0 0 C0.89446335 -0.00281982 1.7889267 -0.00563965 2.710495 -0.00854492 C4.19411278 -0.00550858 4.19411278 -0.00550858 5.70770264 -0.00241089 C6.74344925 -0.00416321 7.77919586 -0.00591553 8.84632874 -0.00772095 C12.29069669 -0.01214335 15.73501379 -0.00919925 19.17938232 -0.00582886 C21.56494151 -0.00650199 23.95050062 -0.00747209 26.33605957 -0.00872803 C31.3465032 -0.01020569 36.35692904 -0.00804901 41.36737061 -0.00338745 C47.79133147 0.00229756 54.21525044 -0.00096094 60.63920975 -0.00695992 C65.57025467 -0.01057419 70.50128968 -0.00942273 75.4323349 -0.00683212 C77.80062617 -0.00616462 80.16891834 -0.00698514 82.53720856 -0.00931168 C85.85057455 -0.01185099 89.16387293 -0.00797889 92.47723389 -0.00241089 C93.45821548 -0.00443512 94.43919708 -0.00645935 95.4499054 -0.00854492 C96.35564804 -0.0057251 97.26139069 -0.00290527 98.19458008 0 C98.97772709 0.00037703 99.7608741 0.00075405 100.56775284 0.0011425 C103.0698577 0.13903044 105.40797584 0.58272256 107.85125732 1.12698364 C107.85125732 1.45698364 107.85125732 1.78698364 107.85125732 2.12698364 C71.22125732 2.12698364 34.59125732 2.12698364 -3.14874268 2.12698364 C-3.12811768 11.84135864 -3.10749268 21.55573364 -3.08624268 31.56448364 C-3.04811441 71.50338213 -3.3449233 111.43955183 -3.64874268 151.37698364 C-3.65471639 152.16314104 -3.66069011 152.94929843 -3.66684484 153.75927877 C-3.8223842 174.2152212 -3.98298293 194.6711214 -4.14874268 215.12698364 C-4.47874268 215.12698364 -4.80874268 215.12698364 -5.14874268 215.12698364 C-5.17206809 187.24212126 -5.18972009 159.35726034 -5.20055485 131.47239017 C-5.20571857 118.52595253 -5.2127627 105.57952093 -5.22418213 92.63308716 C-5.23412665 81.35343291 -5.24059555 70.07378305 -5.24283117 58.79412454 C-5.24413867 52.81762458 -5.247227 46.84113715 -5.25447273 40.86464119 C-5.2612293 35.24642284 -5.26336038 29.62822226 -5.26185036 24.01000023 C-5.26212685 21.94150827 -5.26413411 19.87301575 -5.26794815 17.80452728 C-5.27287973 14.99349782 -5.27174296 12.18253659 -5.26899719 9.37150574 C-5.27191003 8.54175564 -5.27482288 7.71200555 -5.27782398 6.85711151 C-5.25956455 0.00253696 -5.25956455 0.00253696 0 0 Z " fill="#535353" transform="translate(70.14874267578125,41.873016357421875)"/>
<path d="M0 0 C1.34596975 0.04958746 2.69195345 0.09879698 4.03794861 0.14768982 C4.76139906 0.17562559 5.48484951 0.20356136 6.2302227 0.23234367 C21.31071996 0.80129562 36.37447989 0.95648205 51.46459961 0.90405273 C52.43180561 0.90127949 53.39901161 0.89850624 54.39552689 0.89564896 C63.37914332 0.86960672 72.36267468 0.83024046 81.34619141 0.78076172 C86.3337712 0.75385399 91.3213077 0.73691033 96.30894661 0.72589302 C98.17744665 0.71975465 100.04593882 0.70984202 101.91439629 0.69581413 C111.73770475 0.62240824 121.13279917 0.72325378 130.78100586 2.87670898 C130.78100586 3.20670898 130.78100586 3.53670898 130.78100586 3.87670898 C128.47100586 4.20670898 126.16100586 4.53670898 123.78100586 4.87670898 C123.78100586 4.21670898 123.78100586 3.55670898 123.78100586 2.87670898 C82.53100586 3.20670898 41.28100586 3.53670898 -1.21899414 3.87670898 C1.42100586 4.86670898 4.06100586 5.85670898 6.78100586 6.87670898 C2.65685829 7.90774588 1.79689166 7.82372582 -1.96899414 6.43920898 C-2.76821289 6.15174805 -3.56743164 5.86428711 -4.39086914 5.56811523 C-5.29579102 5.22586914 -5.29579102 5.22586914 -6.21899414 4.87670898 C-6.21899414 4.21670898 -6.21899414 3.55670898 -6.21899414 2.87670898 C-6.87899414 2.87670898 -7.53899414 2.87670898 -8.21899414 2.87670898 C-8.21899414 2.21670898 -8.21899414 1.55670898 -8.21899414 0.87670898 C-5.38970711 -0.53793453 -3.16149528 -0.12950684 0 0 Z " fill="#6F6F6F" transform="translate(237.218994140625,41.123291015625)"/>
<path d="M0 0 C1.06116531 0.03541649 1.06116531 0.03541649 2.14376831 0.07154846 C4.40594505 0.14819459 6.66778023 0.23221437 8.9296875 0.31640625 C10.4622228 0.36962602 11.99477484 0.42236643 13.52734375 0.47460938 C17.28667511 0.60381092 21.04571658 0.73962662 24.8046875 0.87890625 C24.8046875 1.53890625 24.8046875 2.19890625 24.8046875 2.87890625 C11.4396875 3.37390625 11.4396875 3.37390625 -2.1953125 3.87890625 C0.4446875 4.86890625 3.0846875 5.85890625 5.8046875 6.87890625 C1.68053993 7.90994314 0.8205733 7.82592309 -2.9453125 6.44140625 C-3.74453125 6.15394531 -4.54375 5.86648437 -5.3671875 5.5703125 C-6.27210938 5.22806641 -6.27210938 5.22806641 -7.1953125 4.87890625 C-7.1953125 4.21890625 -7.1953125 3.55890625 -7.1953125 2.87890625 C-7.8553125 2.87890625 -8.5153125 2.87890625 -9.1953125 2.87890625 C-9.1953125 2.21890625 -9.1953125 1.55890625 -9.1953125 0.87890625 C-6.22129914 -0.60810043 -3.24712324 -0.12729307 0 0 Z " fill="#666666" transform="translate(238.1953125,41.12109375)"/>
<path d="M0 0 C5.05369645 -0.04948633 10.10725142 -0.08576045 15.16113281 -0.10986328 C16.87990781 -0.1199127 18.59866575 -0.13355445 20.31738281 -0.15087891 C22.78975641 -0.17517391 25.26190369 -0.18649368 27.734375 -0.1953125 C28.50118591 -0.20563507 29.26799683 -0.21595764 30.05804443 -0.22659302 C33.85956767 -0.22739012 36.77864518 -0.14509572 40 2 C37.69 2.33 35.38 2.66 33 3 C33 2.34 33 1.68 33 1 C22.11 1 11.22 1 0 1 C0 0.67 0 0.34 0 0 Z " fill="#E9E9E9" transform="translate(328,43)"/>
<path d="M0 0 C1.2989839 0.90626784 2.58893167 1.82549537 3.875 2.75 C4.59429687 3.26046875 5.31359375 3.7709375 6.0546875 4.296875 C8.08570565 6.07503547 8.97855012 7.52701607 10 10 C9.071875 9.360625 8.14375 8.72125 7.1875 8.0625 C4.15780057 5.91377907 4.15780057 5.91377907 1 5 C0.67 3.35 0.34 1.7 0 0 Z " fill="#6C6C6B" transform="translate(404,62)"/>
<path d="M0 0 C1.91635217 -0.05423638 3.83314925 -0.09289963 5.75 -0.125 C7.35101563 -0.15980469 7.35101563 -0.15980469 8.984375 -0.1953125 C11.92470106 -0.00487687 13.52361878 0.47329896 16 2 C13.69 2.33 11.38 2.66 9 3 C9 2.34 9 1.68 9 1 C6.03 1 3.06 1 0 1 C0 0.67 0 0.34 0 0 Z " fill="#878787" transform="translate(352,43)"/>
<path d="" fill="#000000" transform="translate(0,0)"/>
<path d="" fill="#000000" transform="translate(0,0)"/>
<path d="" fill="#000000" transform="translate(0,0)"/>
<path d="" fill="#000000" transform="translate(0,0)"/>
<path d="" fill="#000000" transform="translate(0,0)"/>
<path d="" fill="#000000" transform="translate(0,0)"/>
<path d="" fill="#000000" transform="translate(0,0)"/>
<path d="" fill="#000000" transform="translate(0,0)"/>
<path d="" fill="#000000" transform="translate(0,0)"/>
<path d="" fill="#000000" transform="translate(0,0)"/>
<path d="" fill="#000000" transform="translate(0,0)"/>
<path d="" fill="#000000" transform="translate(0,0)"/>
<path d="" fill="#000000" transform="translate(0,0)"/>
<path d="" fill="#000000" transform="translate(0,0)"/>
<path d="" fill="#000000" transform="translate(0,0)"/>
<path d="" fill="#000000" transform="translate(0,0)"/>
<path d="" fill="#000000" transform="translate(0,0)"/>
<path d="" fill="#000000" transform="translate(0,0)"/>
<path d="" fill="#000000" transform="translate(0,0)"/>
<path d="" fill="#000000" transform="translate(0,0)"/>
<path d="" fill="#000000" transform="translate(0,0)"/>
<path d="" fill="#000000" transform="translate(0,0)"/>
<path d="" fill="#000000" transform="translate(0,0)"/>
<path d="" fill="#000000" transform="translate(0,0)"/>
<path d="" fill="#000000" transform="translate(0,0)"/>
<path d="" fill="#000000" transform="translate(0,0)"/>
<path d="" fill="#000000" transform="translate(0,0)"/>
<path d="" fill="#000000" transform="translate(0,0)"/>
<path d="" fill="#000000" transform="translate(0,0)"/>
<path d="" fill="#000000" transform="translate(0,0)"/>
<path d="" fill="#000000" transform="translate(0,0)"/>
<path d="" fill="#000000" transform="translate(0,0)"/>
<path d="" fill="#000000" transform="translate(0,0)"/>
<path d="" fill="#000000" transform="translate(0,0)"/>
<path d="" fill="#000000" transform="translate(0,0)"/>
<path d="" fill="#000000" transform="translate(0,0)"/>
<path d="" fill="#000000" transform="translate(0,0)"/>
<path d="" fill="#000000" transform="translate(0,0)"/>
<path d="" fill="#000000" transform="translate(0,0)"/>
<path d="" fill="#000000" transform="translate(0,0)"/>
<path d="" fill="#000000" transform="translate(0,0)"/>
<path d="" fill="#000000" transform="translate(0,0)"/>
<path d="" fill="#000000" transform="translate(0,0)"/>
<path d="" fill="#000000" transform="translate(0,0)"/>
<path d="" fill="#000000" transform="translate(0,0)"/>
<path d="" fill="#000000" transform="translate(0,0)"/>
<path d="" fill="#000000" transform="translate(0,0)"/>
<path d="" fill="#000000" transform="translate(0,0)"/>
<path d="" fill="#000000" transform="translate(0,0)"/>
<path d="" fill="#000000" transform="translate(0,0)"/>
<path d="" fill="#000000" transform="translate(0,0)"/>
<path d="" fill="#000000" transform="translate(0,0)"/>
<path d="" fill="#000000" transform="translate(0,0)"/>
<path d="" fill="#000000" transform="translate(0,0)"/>
<path d="" fill="#000000" transform="translate(0,0)"/>
<path d="" fill="#000000" transform="translate(0,0)"/>
</svg>
